
        <svg xmlns="http://www.w3.org/2000/svg" xmlns:xlink="http://www.w3.org/1999/xlink" version="1.1" width="3162.6016260162605" height="2897.898650817216" viewBox="0 0 3162.6016260162605 2897.898650817216">
			
			<g transform="scale(8.130081300813009) translate(10, 10)">
				<defs id="SvgjsDefs2801"/><g id="SvgjsG2802" featureKey="JiLV9t-0" transform="matrix(1.4000001068115315,0,0,1.4000001068115315,116.99999924898142,0.23999963684079262)" fill="#000"><g xmlns="http://www.w3.org/2000/svg"><g><path d="M73.5,58.9c-0.3,0-0.6-0.1-0.8-0.3L50,35.9L27.3,58.5c-0.4,0.4-1.2,0.4-1.6,0c-0.4-0.4-0.4-1.2,0-1.6    l23.5-23.5c0.4-0.4,1.2-0.4,1.6,0l23.5,23.5c0.4,0.4,0.4,1.2,0,1.6C74,58.8,73.7,58.9,73.5,58.9z"/></g><g><path d="M33.8,66.2c-0.3,0-0.6-0.1-0.8-0.3L10.3,43.1l-8.4,8.4c-0.4,0.4-1.2,0.4-1.6,0c-0.4-0.4-0.4-1.2,0-1.6    l9.2-9.2c0.4-0.4,1.2-0.4,1.6,0l23.5,23.5c0.4,0.4,0.4,1.2,0,1.6C34.4,66.1,34.1,66.2,33.8,66.2z"/></g><g><path d="M66.2,66.2c-0.3,0-0.6-0.1-0.8-0.3c-0.4-0.4-0.4-1.2,0-1.6l23.5-23.5c0.4-0.4,1.2-0.4,1.6,0l9.2,9.2    c0.4,0.4,0.4,1.2,0,1.6c-0.4,0.4-1.2,0.4-1.6,0l-8.4-8.4L67,65.8C66.7,66.1,66.5,66.2,66.2,66.2z"/></g><g><g><path d="M31.9,27.8c-0.4,0-0.8-0.2-1-0.6l-6.2-10.7c-0.3-0.5-0.1-1.2,0.4-1.5c0.5-0.3,1.2-0.1,1.5,0.4l6.2,10.7     c0.3,0.5,0.1,1.2-0.4,1.5C32.3,27.8,32.1,27.8,31.9,27.8z"/></g><g><path d="M40.6,24.2c-0.5,0-1-0.3-1.1-0.8l-3.2-11.9c-0.2-0.6,0.2-1.2,0.8-1.4c0.6-0.2,1.2,0.2,1.4,0.8l3.2,11.9     c0.2,0.6-0.2,1.2-0.8,1.4C40.8,24.2,40.7,24.2,40.6,24.2z"/></g><g><path d="M50,23c-0.6,0-1.1-0.5-1.1-1.1V9.5c0-0.6,0.5-1.1,1.1-1.1c0.6,0,1.1,0.5,1.1,1.1v12.3     C51.1,22.5,50.6,23,50,23z"/></g><g><path d="M59.4,24.2c-0.1,0-0.2,0-0.3,0c-0.6-0.2-1-0.8-0.8-1.4l3.2-11.9c0.2-0.6,0.8-1,1.4-0.8     c0.6,0.2,1,0.8,0.8,1.4l-3.2,11.9C60.3,23.9,59.9,24.2,59.4,24.2z"/></g><g><path d="M68.1,27.9c-0.2,0-0.4,0-0.6-0.2c-0.5-0.3-0.7-1-0.4-1.5l6.2-10.7c0.3-0.5,1-0.7,1.5-0.4     c0.5,0.3,0.7,1,0.4,1.5l-6.2,10.7C68.9,27.7,68.5,27.9,68.1,27.9z"/></g><g><path d="M75.6,33.6c-0.3,0-0.6-0.1-0.8-0.3c-0.4-0.4-0.4-1.2,0-1.6l8.7-8.7c0.4-0.4,1.2-0.4,1.6,0     c0.4,0.4,0.4,1.2,0,1.6l-8.7,8.7C76.2,33.5,75.9,33.6,75.6,33.6z"/></g><g><path d="M24.4,33.6c-0.3,0-0.6-0.1-0.8-0.3l-8.7-8.7c-0.4-0.4-0.4-1.2,0-1.6c0.4-0.4,1.2-0.4,1.6,0l8.7,8.7     c0.4,0.4,0.4,1.2,0,1.6C25,33.5,24.7,33.6,24.4,33.6z"/></g></g><g><path d="M13.5,89.8c-0.4,0-0.7-0.2-1-0.5c-0.3-0.5-0.2-1.2,0.3-1.6C24,80.7,36.8,76.9,50,76.9    c13.2,0,26,3.7,37.1,10.8c0.5,0.3,0.7,1,0.3,1.6c-0.3,0.5-1,0.7-1.6,0.3C75.2,82.8,62.8,79.2,50,79.2s-25.2,3.6-35.9,10.4    C13.9,89.8,13.7,89.8,13.5,89.8z"/></g><g><path d="M71.1,91.6c-0.1,0-0.3,0-0.4-0.1c-6.6-2.8-13.5-4.2-20.7-4.2s-14.1,1.4-20.7,4.2c-0.6,0.2-1.2,0-1.5-0.6    c-0.2-0.6,0-1.2,0.6-1.5C35.3,86.5,42.5,85,50,85s14.7,1.5,21.6,4.4c0.6,0.2,0.8,0.9,0.6,1.5C72,91.3,71.6,91.6,71.1,91.6z"/></g></g></g><g id="SvgjsG2803" featureKey="Yxc9Rz-0" transform="matrix(6.8843424997610185,0,0,6.8843424997610185,1.5357970696389298,123.31708766269675)" fill="#000"><path d="M12.28 19.22 q-0.68 0.96 -2.12 0.96 q-0.82 0 -1.23 -0.42 t-0.71 -1.42 l-0.76 -2.34 q-0.3 -0.94 -0.72 -1.34 t-1.14 -0.4 q-0.24 0 -0.88 0.04 l0 5.7 q-0.62 0.12 -1.6 0.12 t-1.6 -0.12 l0 -13.66 q0.62 -0.12 1.6 -0.12 t1.6 0.12 l0 5.28 l0.52 -0.02 q0.36 0 0.52 -0.13 t0.38 -0.55 l1.9 -3.58 q0.3 -0.62 0.64 -0.87 t1.06 -0.25 q0.8 0 1.86 0.1 l0.18 0.22 l-2.44 4.6 q-0.46 0.92 -1.12 1.46 q0.94 0.2 1.41 0.76 t0.79 1.5 l0.82 2.48 q0.16 0.46 0.24 0.68 t0.4 0.74 q0.14 0.2 0.4 0.46 z M17.259999999999998 17.14 q-0.54 0 -0.8 -0.02 l-0.86 2.9 q-0.48 0.12 -1.34 0.12 q-0.96 0 -1.56 -0.22 l-0.1 -0.16 l4.4 -13.42 q0.78 -0.12 1.82 -0.12 q1.18 0 1.88 0.14 l4.32 13.44 q-0.7 0.38 -1.58 0.38 q-1.04 0 -1.46 -0.36 t-0.72 -1.38 l-0.38 -1.32 q-0.26 0.02 -0.78 0.02 l-2.84 0 z M17.2 14.620000000000001 l0.8 -0.02 l1.46 0 q0.1 0 0.35 0.01 t0.37 0.01 l-0.34 -1.24 q-0.48 -1.68 -1.1 -4.12 l-0.12 0 q-0.16 0.86 -0.96 3.82 z M26.32 16.9 l4.44 -6.1 q0.68 -0.98 1.62 -1.98 l-0.06 -0.06 q-1.42 0.18 -3.1 0.18 l-2.86 0 q-0.12 -0.46 -0.12 -1.11 t0.22 -1.49 l8.86 0 q0.44 1.66 0.44 2.11 t-0.36 0.97 l-4.46 6.12 q-0.68 0.96 -1.56 1.88 l0.06 0.06 q2 -0.14 3 -0.14 l1.12 0 q1.2 0 2.24 -0.46 q0.22 0.7 0.22 1.48 t-0.57 1.21 t-1.53 0.43 l-7.64 0 q-0.36 -1.6 -0.36 -2.07 t0.4 -1.03 z M37.88 19.96 l1.06 -13.6 q0.88 -0.16 2.08 -0.16 t2.1 0.16 l1.18 4.9 q0.7 3.32 0.74 3.62 l0.14 0 q0.08 -0.5 0.74 -3.62 l1.2 -4.9 q0.88 -0.16 2.08 -0.16 t2.1 0.16 l1.06 13.6 q-0.62 0.16 -1.53 0.16 t-1.49 -0.1 l-0.32 -5.56 q-0.14 -3.32 -0.16 -4.62 l-0.12 0 l-1.98 8.14 q-0.72 0.12 -1.65 0.12 t-1.65 -0.12 l-1.96 -8.14 l-0.14 0 q0 1.78 -0.16 4.62 l-0.3 5.56 q-0.58 0.1 -1.49 0.1 t-1.53 -0.16 z"/></g><g id="SvgjsG2804" featureKey="Yxc9Rz-1" transform="matrix(2.198492715173391,0,0,2.198492715173391,10.768844467382419,260.56783620378155)" fill="#000"><path d="M4.4 17.46 l-0.02 -1.48 l0 -2.62 q0 -0.3 0.06 -1.14 t0.08 -1.18 q-1.04 1.16 -2.66 1.84 q-0.46 -0.2 -0.84 -0.71 t-0.46 -1.09 q2.8 -1.74 3.92 -4.04 q0.68 -0.12 1.49 -0.12 t1.45 0.12 l0 8.94 l-0.02 1.48 l1.36 -0.02 l1.08 0 q0.16 0.6 0.16 1.28 t-0.16 1.28 l-8.34 0 q-0.16 -0.64 -0.16 -1.3 t0.16 -1.26 l1.62 0 z M12.62 8.04 q1.36 -1.3 3.28 -1.3 t3.28 1.3 q0.86 0.96 1.14 2.27 t0.28 3.21 t-0.28 3.21 t-1.14 2.27 q-1.36 1.3 -3.28 1.3 t-3.28 -1.3 q-0.86 -0.96 -1.14 -2.27 t-0.28 -3.21 t0.28 -3.21 t1.14 -2.27 z M14.76 17.16 q0.3 0.76 1.14 0.76 q0.46 0 0.75 -0.22 t0.46 -0.73 t0.23 -1.35 t0.06 -2.1 t-0.06 -2.1 t-0.23 -1.35 t-0.46 -0.73 t-0.75 -0.22 t-0.76 0.22 t-0.46 0.73 t-0.22 1.35 t-0.06 2.1 q0 2.72 0.36 3.64 z M26.619999999999997 20.3 q-4.78 0 -4.78 -6.66 q0 -1.62 0.37 -2.9 t1.07 -2.17 t1.71 -1.36 t2.31 -0.47 q1.92 0 3.28 0.7 q-0.1 1.36 -1 2.14 q-1.02 -0.4 -2.02 -0.4 q-2.32 0 -2.48 2.92 q1.12 -0.82 2.62 -0.82 q0.76 0 1.4 0.27 t1.1 0.81 t0.71 1.36 t0.25 1.92 q0 1.08 -0.35 1.95 t-0.97 1.47 t-1.44 0.92 t-1.78 0.32 z M26.72 13.780000000000001 q-0.88 0 -1.64 0.62 l0 0.2 q0 0.98 0.12 1.63 t0.33 1.04 t0.5 0.56 t0.63 0.17 q1.42 0 1.42 -2.1 q0 -2.12 -1.36 -2.12 z M33.099999999999994 17.42 q0.34 -0.18 0.74 -0.27 t0.82 -0.09 q0.92 0 1.58 0.36 q0.24 0.52 0.24 1.22 q0 0.34 -0.06 0.65 t-0.18 0.55 q-0.56 0.38 -1.58 0.38 q-1 0 -1.56 -0.38 q-0.12 -0.24 -0.18 -0.55 t-0.06 -0.65 q0 -0.7 0.24 -1.22 z M46.56 7.039999999999999 q0.22 0.6 0.22 1.28 q0 1.3 -1.32 1.3 l-3.44 0 l0 0.54 l-0.08 0.94 l-0.06 0.34 q0.5 -0.12 1.08 -0.12 q2.04 0 3.16 1.16 t1.12 3.1 q0 1.12 -0.39 2 t-1.06 1.48 t-1.58 0.92 t-1.93 0.32 q-2.48 0 -4 -1.38 q0.04 -0.24 0.16 -0.53 t0.29 -0.57 t0.38 -0.53 t0.43 -0.41 q0.68 0.48 1.3 0.69 t1.14 0.21 q0.98 0 1.53 -0.59 t0.55 -1.49 q0 -0.96 -0.57 -1.48 t-1.39 -0.52 q-0.42 0 -0.87 0.15 t-0.89 0.47 q-0.4 -0.1 -0.86 -0.41 t-0.7 -0.67 l0.36 -6.04 l0.16 -0.16 l7.26 0 z M54.3 20 l0 -7.8 l-1.72 0.02 q-0.12 -0.5 -0.12 -1.1 t0.12 -1.12 l1.56 0.02 q-0.1 -0.74 -0.1 -1.34 q0 -1.5 0.97 -2.49 t2.53 -0.99 t3.06 0.56 q0.02 0.52 -0.18 1.13 t-0.5 0.93 q-0.94 -0.28 -1.54 -0.28 q-1.34 0 -1.34 1.38 q0 0.58 0.08 1.12 l2.62 -0.04 q0.12 0.52 0.12 1.12 t-0.12 1.1 l-2.4 -0.04 l0 7.82 q-0.68 0.12 -1.5 0.12 t-1.54 -0.12 z M66.24000000000001 13.98 q0 -1.34 -0.9 -1.34 q-0.32 0 -0.65 0.19 t-0.67 0.49 l0 6.68 q-0.34 0.06 -0.74 0.09 t-0.82 0.03 t-0.82 -0.03 t-0.74 -0.09 l0 -9.98 l0.14 -0.14 l1.16 0 q1.28 0 1.68 1.26 q1.42 -1.3 2.76 -1.3 q1.62 0 2.34 1.38 q1.56 -1.38 2.96 -1.38 t2.09 0.87 t0.69 2.31 l0 4.48 q0 1.3 0.5 1.98 q-0.76 0.68 -1.82 0.68 q-1.04 0 -1.42 -0.48 t-0.38 -1.46 l0 -4.26 q0 -1.32 -0.94 -1.32 q-0.58 0 -1.28 0.7 l0 6.66 q-0.34 0.06 -0.74 0.09 t-0.82 0.03 t-0.83 -0.03 t-0.75 -0.09 l0 -6.02 z M90.98 14.14 l0.02 2.66 q0 0.78 0.03 1.57 t0.11 1.63 q-0.46 0.18 -1.42 0.18 q-1 0 -1.44 -0.14 l-0.2 -0.88 q-1.3 1.14 -3.12 1.14 q-0.92 0 -1.65 -0.3 t-1.23 -0.81 t-0.76 -1.18 t-0.26 -1.43 q0 -1.52 0.73 -2.52 t1.81 -1.34 q-0.9 -0.32 -1.43 -1.13 t-0.53 -1.89 q0 -1.68 1.2 -2.67 t3.3 -0.99 q0.3 0 0.98 0.04 t1.37 0.16 t1.75 0.48 q0 0.78 -0.21 1.36 t-0.59 0.98 q-1.66 -0.56 -2.68 -0.56 q-1.84 0 -1.84 1.46 q0 1.56 1.98 1.56 l3.88 0 q1.2 0 2.12 -0.4 q0.4 0.52 0.4 1.46 q0 1.56 -1.88 1.56 l-0.44 0 z M87.92 15.379999999999999 l0 -0.71 t0.02 -0.53 l-1.28 0 q-2.34 0 -2.34 1.98 q0 0.9 0.43 1.33 t1.11 0.43 q1.18 0 2.06 -0.76 l0 -1.74 z M98.96000000000002 7.039999999999999 l8.2 0 q0.56 1.2 0.56 1.82 t-0.42 1.24 l-0.78 1.08 q-2.5 3.48 -2.86 7.9 l-0.08 0.92 q-0.64 0.12 -1.54 0.12 t-1.62 -0.12 l0.08 -0.96 q0.18 -2.26 0.94 -4.3 t1.86 -3.48 l0.26 -0.34 q0.58 -0.8 1.28 -1.42 l-0.1 -0.1 q-1.1 0.26 -2.76 0.26 l-3.16 0 q-0.16 -0.48 -0.16 -1.2 t0.3 -1.42 z M108.9 16.7 q0 -2.02 2.16 -3.34 q-1.84 -1.18 -1.84 -3.08 q0 -0.76 0.34 -1.41 t0.94 -1.12 t1.42 -0.74 t1.78 -0.27 q0.98 0 1.8 0.26 t1.39 0.73 t0.89 1.13 t0.32 1.46 q0 1.64 -1.86 2.68 q1.14 0.68 1.68 1.55 t0.54 2.01 q0 0.86 -0.38 1.55 t-1.05 1.18 t-1.57 0.75 t-1.94 0.26 q-1.06 0 -1.91 -0.25 t-1.45 -0.71 t-0.93 -1.13 t-0.33 -1.51 z M113.60000000000001 14.52 l-0.5 -0.18 q-1.08 0.94 -1.08 2.18 q0 0.7 0.45 1.16 t1.21 0.46 t1.19 -0.46 t0.43 -1.14 q0 -1.36 -1.7 -2.02 z M112.26 10.26 q0 0.58 0.41 0.98 t1.25 0.72 l0.26 0.1 q0.94 -0.7 0.94 -1.72 q0 -0.62 -0.4 -1.01 t-1.04 -0.39 q-0.62 0 -1.02 0.38 t-0.4 0.94 z M121 8.04 q1.36 -1.3 3.28 -1.3 t3.28 1.3 q0.86 0.96 1.14 2.27 t0.28 3.21 t-0.28 3.21 t-1.14 2.27 q-1.36 1.3 -3.28 1.3 t-3.28 -1.3 q-0.86 -0.96 -1.14 -2.27 t-0.28 -3.21 t0.28 -3.21 t1.14 -2.27 z M123.14 17.16 q0.3 0.76 1.14 0.76 q0.46 0 0.75 -0.22 t0.46 -0.73 t0.23 -1.35 t0.06 -2.1 t-0.06 -2.1 t-0.23 -1.35 t-0.46 -0.73 t-0.75 -0.22 t-0.76 0.22 t-0.46 0.73 t-0.22 1.35 t-0.06 2.1 q0 2.72 0.36 3.64 z M143.66000000000003 18.56 q-0.1 0.42 -0.38 0.9 t-0.58 0.7 q-1.4 -0.04 -2.16 -1.06 q-1.3 1.2 -2.82 1.2 q-0.78 0 -1.36 -0.25 t-0.98 -0.67 t-0.6 -0.97 t-0.2 -1.15 q0 -0.86 0.31 -1.51 t0.85 -1.08 t1.26 -0.65 t1.54 -0.22 q0.46 0 0.81 0.01 t0.61 0.03 l0 -0.38 q0 -1.26 -1.3 -1.26 q-0.84 0 -2.94 0.64 q-0.6 -0.7 -0.76 -2.18 q0.48 -0.18 1.07 -0.34 t1.21 -0.28 t1.22 -0.19 t1.08 -0.07 q0.7 0 1.35 0.2 t1.14 0.61 t0.78 1.06 t0.29 1.55 l0 4.06 q0 0.92 0.56 1.3 z M137.62 17.06 q0 0.94 1.08 0.94 q0.56 0 1.26 -0.58 l0 -1.6 q-0.4 -0.02 -0.67 -0.03 t-0.41 -0.01 q-1.26 0 -1.26 1.28 z M150.78 13.98 q0 -1.34 -0.9 -1.34 q-0.32 0 -0.65 0.19 t-0.67 0.49 l0 6.68 q-0.34 0.06 -0.74 0.09 t-0.82 0.03 t-0.82 -0.03 t-0.74 -0.09 l0 -9.98 l0.14 -0.14 l1.16 0 q1.28 0 1.68 1.26 q1.42 -1.3 2.76 -1.3 q1.62 0 2.34 1.38 q1.56 -1.38 2.96 -1.38 t2.09 0.87 t0.69 2.31 l0 4.48 q0 1.3 0.5 1.98 q-0.76 0.68 -1.82 0.68 q-1.04 0 -1.42 -0.48 t-0.38 -1.46 l0 -4.26 q0 -1.32 -0.94 -1.32 q-0.58 0 -1.28 0.7 l0 6.66 q-0.34 0.06 -0.74 0.09 t-0.82 0.03 t-0.83 -0.03 t-0.75 -0.09 l0 -6.02 z"/></g><g id="SvgjsG2805" featureKey="zc75Em-0" transform="matrix(0.7589658434725595,0,0,0.7589658434725595,4.134779039774155,321.1863206690998)" fill="#000"><path d="M4.14 13.26 l0 6.74 l-3 0 l0 -12.24 l3 0 l3.82 6.76 l3.82 -6.76 l3 0 l0 12.24 l-3 0 l0 -6.74 l-2.32 3.98 l-3 0 z M29.035 7.76 l9.1 0 l0 2.78 l-6.1 0 l0 1.96 l4.9 0 l0 2.78 l-4.9 0 l0 1.94 l6.1 0 l0 2.78 l-9.1 0 l0 -12.24 z M60.89000000000001 17.22 l0 2.78 l-9.1 0 l0 -12.24 l3 0 l0 9.46 l6.1 0 z M83.465 17.22 l0 2.78 l-9.1 0 l0 -12.24 l3 0 l0 9.46 l6.1 0 z M102.54 17.32 c2.18 0 3.3 -1.4 3.3 -3.44 c0 -2.16 -1.2 -3.44 -3.3 -3.44 c-2.2 0 -3.3 1.4 -3.3 3.44 c0 2.12 1.22 3.44 3.3 3.44 z M102.54 20.1 c-3.76 0 -6.3 -2.56 -6.3 -6.22 c0 -3.78 2.66 -6.22 6.3 -6.22 c3.78 0 6.3 2.54 6.3 6.22 c0 3.8 -2.64 6.22 -6.3 6.22 z M135.41500000000002 7.76 l2.92 0 l-2.26 12.24 l-4.44 0 l-1.6 -7.14 l-1.7 7.14 l-4.68 0 l-1.98 -12.24 l3.06 0 l1.38 9.16 l1.8 -7.14 l4.26 0 l1.72 7.14 z M170.945 13.26 l0 6.74 l-3 0 l0 -12.24 l3 0 l3.82 6.76 l3.82 -6.76 l3 0 l0 12.24 l-3 0 l0 -6.74 l-2.32 3.98 l-3 0 z M201.72000000000003 17.32 c2.18 0 3.3 -1.4 3.3 -3.44 c0 -2.16 -1.2 -3.44 -3.3 -3.44 c-2.2 0 -3.3 1.4 -3.3 3.44 c0 2.12 1.22 3.44 3.3 3.44 z M201.72000000000003 20.1 c-3.76 0 -6.3 -2.56 -6.3 -6.22 c0 -3.78 2.66 -6.22 6.3 -6.22 c3.78 0 6.3 2.54 6.3 6.22 c0 3.8 -2.64 6.22 -6.3 6.22 z M229.27500000000003 7.76 l3 0 l0 7.24 c0 3.18 -2.28 5.1 -5.3 5.1 c-3.1 0 -5.3 -2.04 -5.3 -5.1 l0 -7.24 l3 0 l0 7.24 c0 1.44 0.86 2.32 2.3 2.32 c1.48 0 2.3 -0.86 2.3 -2.32 l0 -7.24 z M254.13000000000002 7.76 l3 0 l0 12.24 l-3 0 l-4.8 -7.16 l0 7.16 l-3 0 l0 -12.24 l3 0 l4.8 7.16 l0 -7.16 z M270.665 7.76 l10.2 0 l0 2.78 l-3.6 0 l0 9.46 l-3 0 l0 -9.46 l-3.6 0 l0 -2.78 z M301.96000000000004 17.52 l-4.5 0 l-0.88 2.48 l-3.26 0 l4.9 -12.24 l3 0 l4.9 12.24 l-3.28 0 z M298.44 14.74 l2.54 0 l-1.26 -3.56 z M319.27500000000003 7.76 l3 0 l0 12.24 l-3 0 l0 -12.24 z M344.29 7.76 l3 0 l0 12.24 l-3 0 l-4.8 -7.16 l0 7.16 l-3 0 l0 -12.24 l3 0 l4.8 7.16 l0 -7.16 z M380.90000000000003 10.58 l0 2.92 l2.8 0 c0.92 0 1.46 -0.54 1.46 -1.46 s-0.54 -1.46 -1.46 -1.46 l-2.8 0 z M385.44000000000005 15.48 c0.56 0.76 1.12 1.52 1.7 2.26 c0.56 0.74 1.12 1.5 1.68 2.26 l-3.66 0 c-0.72 -0.96 -1.42 -1.92 -2.12 -2.88 c-0.7 -0.94 -1.42 -1.9 -2.14 -2.86 l0 5.74 l-3 0 l0 -12.24 l5.8 0 c2.28 0 4.22 1.74 4.22 4.04 c0 1.62 -1 3.04 -2.48 3.68 z M409.61500000000007 17.52 l-4.5 0 l-0.88 2.48 l-3.26 0 l4.9 -12.24 l3 0 l4.9 12.24 l-3.28 0 z M406.095 14.74 l2.54 0 l-1.26 -3.56 z M431.25000000000006 20 l-4.3 0 l0 -12.24 l4.3 0 c3.74 0 6.3 2.44 6.3 6.12 c0 3.78 -2.7 6.12 -6.3 6.12 z M429.95000000000005 10.54 l0 6.68 l1.3 0 c2.12 0 3.3 -1.34 3.3 -3.34 c0 -0.46 -0.06 -0.88 -0.18 -1.3 c-0.52 -1.46 -1.66 -2.04 -3.12 -2.04 l-1.3 0 z M451.3450000000001 7.76 l3 0 l0 12.24 l-3 0 l0 -12.24 z M474.44000000000005 17.32 c2.18 0 3.3 -1.4 3.3 -3.44 c0 -2.16 -1.2 -3.44 -3.3 -3.44 c-2.2 0 -3.3 1.4 -3.3 3.44 c0 2.12 1.22 3.44 3.3 3.44 z M474.44000000000005 20.1 c-3.76 0 -6.3 -2.56 -6.3 -6.22 c0 -3.78 2.66 -6.22 6.3 -6.22 c3.78 0 6.3 2.54 6.3 6.22 c0 3.8 -2.64 6.22 -6.3 6.22 z"/></g>
			</g>
		</svg>
	